# xmcd
#
# Track frame offsets: 
#        150
#        11078
#        31475
#        54139
#        74546
#        94447
#        98708
#        121554
#        140591
#        153234
#
# Disc length: 2387 seconds
#
# Revision: 1
# Processed by: cddbd v1.5.2PL0 Copyright (c) Steve Scherf et al.
# Submitted via: ExactAudioCopy v0.95b4
#
DISCID=7d09510a
DTITLE=Timo Rautiainen - Sarvivuori
DYEAR=2006
DGENRE=Rock
TTITLE0=Eteenpäin
TTITLE1=Pesäpallomaila
TTITLE2=Punainen viiva
TTITLE3=Sinulle
TTITLE4=Uskonnonpastori
TTITLE5=Lumi
TTITLE6=Meille niin rakas
TTITLE7=Vesien hallitsijan testamentti
TTITLE8=Sarvivuori
TTITLE9=Hiljaisen talven lapsi
EXTD=
EXTT0=
EXTT1=
EXTT2=
EXTT3=
EXTT4=
EXTT5=
EXTT6=
EXTT7=
EXTT8=
EXTT9=
PLAYORDER=
